<svg t="1720854436631" class="icon" viewBox="0 0 1024 1024" version="1.1" xmlns="http://www.w3.org/2000/svg" p-id="2442" width="32" height="32"><path d="M513 931.1H196.4c-48.1 0-87.2-39.1-87.2-87.2V663.2c0-3.8 0.7-7.6 2.2-11.1l119.2-295.2c4.5-11.2 15.4-18.6 27.5-18.6H445c16.4 0 29.7 13.3 29.7 29.7s-13.3 29.7-29.7 29.7H278.1L168.5 669v174.9c0 15.4 12.5 27.8 27.8 27.8H513c16.4 0 29.7 13.3 29.7 29.7s-13.3 29.7-29.7 29.7z" fill="#515151" p-id="2443"></path><path d="M402.7 223.5L364.1 316H631l-34-92.5z" fill="#515151" p-id="2444"></path><path d="M280.5 739.4m-52 0a52 52 0 1 0 104 0 52 52 0 1 0-104 0Z" fill="#515151" p-id="2445"></path><path d="M730.5 742.6m-52 0a52 52 0 1 0 104 0 52 52 0 1 0-104 0Z" fill="#515151" p-id="2446"></path><path d="M832.9 607.3h-339c-16.4 0-29.7-13.3-29.7-29.7s13.3-29.7 29.7-29.7h330.6l60.7-37.2c14-8.6 32.2-4.2 40.8 9.8 8.6 14 4.2 32.2-9.8 40.8l-67.8 41.6c-4.6 2.9-10 4.4-15.5 4.4z" fill="#515151" p-id="2447"></path><path d="M390.1 607.3H173.4c-4.4 0-8.7-1-12.7-2.8L83 567.7c-14.8-7-21.1-24.7-14.2-39.5 7-14.8 24.7-21.1 39.5-14.2l71.8 33.9h210c16.4 0 29.7 13.3 29.7 29.7-0.1 16.4-13.3 29.7-29.7 29.7z" fill="#515151" p-id="2448"></path><path d="M226.9 1003.4c-16.4 0-29.7-13.3-29.7-29.7v-72.3c0-16.4 13.3-29.7 29.7-29.7s29.7 13.3 29.7 29.7v72.3c0 16.4-13.3 29.7-29.7 29.7z" fill="#515151" p-id="2449"></path><path d="M781.5 899.5v77.2" fill="#515151" p-id="2450"></path><path d="M284 901.4v74.8c0 23.7-19.4 43.1-43.1 43.1-23.7 0-43.1-19.4-43.1-43.1v-74.8" fill="#515151" p-id="2451"></path><path d="M812.7 898.2V978c0 25.3-20.7 46-46 46s-46-20.7-46-46v-79.8" fill="#515151" p-id="2452"></path><path d="M649.1 974.8h124.7L844 640.3h68.3v-107c0-111.3-90.5-201.8-201.8-201.8-111.2 0-201.8 90.5-201.8 201.8v107h69.8l70.6 334.5z" fill="#515151" p-id="2453"></path><path d="M710.5 316.8c-119.1 0-216.6 97.5-216.6 216.6v121.8h72.6l70.6 334.4h148.7l70.3-334.4h71.1V533.4c-0.1-119.2-97.5-216.6-216.7-216.6z" fill="#515151" p-id="2454"></path><path d="M785.8 1019.3H637.1c-14 0-26.1-9.8-29-23.5l-65.6-310.9H494c-16.4 0-29.7-13.3-29.7-29.7V533.4c0-135.8 110.5-246.3 246.3-246.3s246.3 110.5 246.3 246.3v121.8c0 16.4-13.3 29.7-29.7 29.7h-47l-65.3 310.9c-2.9 13.7-15.1 23.5-29.1 23.5zM661.2 960h100.6L827 649.1c2.9-13.7 15-23.6 29-23.6h41.4v-92.1c0-103.1-83.9-187-187-187s-186.9 83.9-186.9 187v92.1h42.9c14 0 26.1 9.8 29 23.5l65.8 311z" fill="#515151" p-id="2455"></path><path d="M712.5 267.6c-73.8 0-133.8-60-133.8-133.8S638.7 0 712.5 0c73.8 0 133.8 60 133.8 133.8s-60 133.8-133.8 133.8z m0-208.3c-41.1 0-74.5 33.4-74.5 74.5s33.4 74.5 74.5 74.5 74.5-33.4 74.5-74.5c-0.1-41.1-33.5-74.5-74.5-74.5z" fill="#515151" p-id="2456"></path></svg>